<svg width="64" height="64" viewBox="0 0 64 64" fill="none" xmlns="http://www.w3.org/2000/svg">
  <rect width="64" height="64" rx="13" fill="#0A0E16"/>
  <!-- ForgeLens mark, scaled from the 24-unit master and given a heavier
       stroke so it survives a 16px browser tab. -->
  <g transform="translate(6.4,6.4) scale(2.133)" stroke="#4C86FF" fill="none">
    <path d="M2.4,6.8 V3.6 A1.2,1.2 0 0 1 3.6,2.4 H6.8 M17.2,2.4 H20.4 A1.2,1.2 0 0 1 21.6,3.6 V6.8 M21.6,17.2 V20.4 A1.2,1.2 0 0 1 20.4,21.6 H17.2 M6.8,21.6 H3.6 A1.2,1.2 0 0 1 2.4,20.4 V17.2"
          stroke-width="2.3" stroke-linecap="round"/>
    <path d="M12,5.7 L17.456,8.85 L17.456,15.15 L12,18.3 L6.544,15.15 L6.544,8.85 Z"
          stroke-width="2" stroke-linejoin="round"/>
    <path d="M12,12 L17.456,8.85 M12,12 L6.544,8.85 M12,12 L12,18.3"
          stroke-width="2" stroke-linecap="round"/>
  </g>
</svg>
